<?xml version="1.0" encoding="UTF-8" standalone="no"?>
<!-- Created with Inkscape (http://www.inkscape.org/) -->

<svg
   xmlns:dc="http://purl.org/dc/elements/1.1/"
   xmlns:cc="http://creativecommons.org/ns#"
   xmlns:rdf="http://www.w3.org/1999/02/22-rdf-syntax-ns#"
   xmlns:svg="http://www.w3.org/2000/svg"
   xmlns="http://www.w3.org/2000/svg"
   xmlns:sodipodi="http://sodipodi.sourceforge.net/DTD/sodipodi-0.dtd"
   xmlns:inkscape="http://www.inkscape.org/namespaces/inkscape"
   width="106.28371mm"
   height="119.85002mm"
   viewBox="0 0 106.28371 119.85002"
   version="1.1"
   id="svg8"
   inkscape:version="0.92.1 r15371"
   sodipodi:docname="fire-pan.svg">
  <defs
     id="defs2" />
  <sodipodi:namedview
     id="base"
     borderopacity="1.0"
     inkscape:pageopacity="0.0"
     inkscape:pageshadow="2"
     inkscape:zoom="0.98994949"
     inkscape:cx="31.53755"
     inkscape:cy="228.15479"
     inkscape:document-units="mm"
     inkscape:current-layer="layer2"
     showgrid="false"
     inkscape:window-width="1991"
     inkscape:window-height="1326"
     inkscape:window-x="280"
     inkscape:window-y="20"
     inkscape:window-maximized="0" />
  <metadata
     id="metadata5">
    <rdf:RDF>
      <cc:Work
         rdf:about="">
        <dc:format>image/svg+xml</dc:format>
        <dc:type
           rdf:resource="http://purl.org/dc/dcmitype/StillImage" />
        <dc:title></dc:title>
      </cc:Work>
    </rdf:RDF>
  </metadata>
  <g
     inkscape:groupmode="layer"
     id="layer2"
     inkscape:label="Layer 2"
     transform="translate(-42.402183,-70.970237)">
    <path
       style="opacity:1;vector-effect:none;fill:#abb1bf;fill-opacity:1;stroke:none;stroke-width:0.26458332px;stroke-linecap:butt;stroke-linejoin:miter;stroke-miterlimit:4;stroke-dasharray:none;stroke-dashoffset:0;stroke-opacity:1"
       d="M 101.29762,164.89732 C 85.519751,161.4583 70.30417,150.48238 88.068451,121.80803 97.292103,106.79052 103.3423,90.594302 100.16369,70.970237 c 9.9082,5.938981 16.72018,14.833434 14.93006,31.938993 0.10794,19.02375 9.71158,19.06149 11.90625,7.37053 2.37382,-10.14615 7.07468,-14.807239 11.68484,-17.209381 -1.93415,9.467661 -0.79012,20.404991 2.67825,27.981701 20.31073,31.54988 -6.43071,43.36195 -22.1116,44.4122 11.91336,-11.18761 9.86864,-19.96427 2.26785,-27.78125 -1.0563,17.85351 -12.21743,12.80849 -15.68601,1.7009 -1.13307,-4.43783 -2.61518,-8.83477 -1.70089,-14.3631 -9.307668,16.3421 -8.635942,29.04466 -2.83482,39.87649 z"
       id="path4497"
       inkscape:connector-curvature="0"
       sodipodi:nodetypes="cccccccccccc" />
    <path
       style="opacity:1;vector-effect:none;fill:#abb1bf;fill-opacity:1;stroke:none;stroke-width:0.26458332px;stroke-linecap:butt;stroke-linejoin:miter;stroke-miterlimit:4;stroke-dasharray:none;stroke-dashoffset:0;stroke-opacity:1"
       d="m 76.162201,148.92783 c -24.393198,23.91478 61.093519,35.13836 71.909969,9.16592 0.0904,5.3788 -0.26271,10.81303 -2.17336,16.44196 -1.36248,2.97748 -2.89166,5.89244 -6.23661,8.12649 -14.64734,10.12376 -46.59814,11.93784 -63.972468,-0.94494 -2.898691,-1.93865 -6.856103,-7.00495 -7.276042,-17.29241 l -22.962055,-14.3631 c -7.232622,-5.66058 -0.09545,-15.08045 5.858632,-12.85119 z"
       id="path4499"
       inkscape:connector-curvature="0"
       sodipodi:nodetypes="ccccccccc" />
  </g>
</svg>
